<?xml version="1.0" encoding="UTF-8" standalone="no"?>
<svg
   xmlns:dc="http://purl.org/dc/elements/1.1/"
   xmlns:cc="http://creativecommons.org/ns#"
   xmlns:rdf="http://www.w3.org/1999/02/22-rdf-syntax-ns#"
   xmlns:svg="http://www.w3.org/2000/svg"
   xmlns="http://www.w3.org/2000/svg"
   xmlns:sodipodi="http://sodipodi.sourceforge.net/DTD/sodipodi-0.dtd"
   xmlns:inkscape="http://www.inkscape.org/namespaces/inkscape"
   width="60px"
   height="60px"
   viewBox="0 0 60 60"
   version="1.1"
   id="svg3789"
   sodipodi:docname="lexin icon.svg"
   inkscape:version="0.92.4 (unknown)">
  <metadata
     id="metadata3795">
    <rdf:RDF>
      <cc:Work
         rdf:about="">
        <dc:format>image/svg+xml</dc:format>
        <dc:type
           rdf:resource="http://purl.org/dc/dcmitype/StillImage" />
        <dc:title>lexin icon</dc:title>
      </cc:Work>
    </rdf:RDF>
  </metadata>
  <defs
     id="defs3793" />
  <sodipodi:namedview
     pagecolor="#ffffff"
     bordercolor="#666666"
     borderopacity="1"
     objecttolerance="10"
     gridtolerance="10"
     guidetolerance="10"
     inkscape:pageopacity="0"
     inkscape:pageshadow="2"
     inkscape:window-width="1853"
     inkscape:window-height="1025"
     id="namedview3791"
     showgrid="false"
     inkscape:zoom="14.066667"
     inkscape:cx="30"
     inkscape:cy="32.843602"
     inkscape:window-x="67"
     inkscape:window-y="27"
     inkscape:window-maximized="1"
     inkscape:current-layer="svg3789" />
  <!-- Generator: Sketch 52.5 (67469) - http://www.bohemiancoding.com/sketch -->
  <title
     id="title3774">lexin icon</title>
  <desc
     id="desc3776">Created with Sketch.</desc>
  <g
     style="fill:none;fill-rule:evenodd;stroke:none;stroke-width:1"
     id="icon">
    <g
       transform="translate(-0.804688,-0.335938)"
       id="lexin-icon">
      <path
         style="fill:#000000"
         inkscape:connector-curvature="0"
         id="Rectangle"
         d="m 18.110913,0.3359375 h 25.387549 c 6.017752,0 8.199934,0.62657287 10.399934,1.8031458 2.2,1.1765728 3.926573,2.9031457 5.103146,5.1031457 1.176573,2.2 1.803145,4.382182 1.803145,10.399934 v 25.387549 c 0,6.017752 -0.626572,8.199934 -1.803145,10.399934 -1.176573,2.2 -2.903146,3.926573 -5.103146,5.103146 -2.2,1.176573 -4.382182,1.803145 -10.399934,1.803145 H 18.110913 c -6.017752,0 -8.199934,-0.626572 -10.399934,-1.803145 -2.2,-1.176573 -3.9265729,-2.903146 -5.1031457,-5.103146 -1.1765729,-2.2 -1.8031458,-4.382182 -1.8031458,-10.399934 V 17.642163 c 0,-6.017752 0.6265729,-8.199934 1.8031458,-10.399934 1.1765728,-2.2 2.9031457,-3.9265729 5.1031457,-5.1031457 2.2,-1.17657293 4.382182,-1.8031458 10.399934,-1.8031458 z" />
      <rect
         style="fill:#9c9c9c"
         rx="2.5002732"
         height="15.730932"
         width="5.0005465"
         y="21.487288"
         x="45.637623"
         id="rect3779" />
      <rect
         style="fill:#4a90e2"
         rx="2.5002732"
         height="15.730932"
         width="5.0005465"
         y="21.487288"
         x="11.088393"
         id="Rectangle-Copy-7" />
      <path
         style="fill:#ff9f00"
         inkscape:connector-curvature="0"
         id="Rectangle-Copy-3"
         d="m 38.74293,47.349207 c 0,1.251212 -1.32294,2.26552 -2.954868,2.26552 h -9.849561 c -1.631929,0 -2.954869,-1.014308 -2.954869,-2.26552 0,-1.251213 1.32294,-2.265521 2.954869,-2.265521 h 9.849561 c 1.631928,0 2.954868,1.014308 2.954868,2.265521 z" />
      <path
         style="fill:#4a90e2"
         inkscape:connector-curvature="0"
         id="Rectangle-Copy-8"
         d="m 38.74293,13.322668 c 0,1.251213 -1.32294,2.265521 -2.954868,2.265521 h -9.849561 c -1.631929,0 -2.954869,-1.014308 -2.954869,-2.265521 0,-1.251212 1.32294,-2.26552 2.954869,-2.26552 h 9.849561 c 1.631928,0 2.954868,1.014308 2.954868,2.26552 z" />
      <rect
         style="fill:#ffffff"
         rx="2.3428125"
         height="21.630032"
         width="21.669035"
         y="19.554688"
         x="20.023438"
         id="rect3784" />
    </g>
  </g>
</svg>
